<svg width="19" height="21" viewBox="0 0 19 21" fill="none" xmlns="http://www.w3.org/2000/svg">
<path d="M5.76373 1.33984H2.91373C2.4818 1.33984 2.06757 1.51142 1.76215 1.81684C1.45674 2.12226 1.28516 2.53649 1.28516 2.96841V7.85413C1.28516 8.068 1.32728 8.27977 1.40912 8.47736C1.49097 8.67494 1.61093 8.85448 1.76215 9.0057C1.91338 9.15693 2.09291 9.27689 2.2905 9.35873C2.48809 9.44058 2.69986 9.4827 2.91373 9.4827H5.76373C5.97759 9.4827 6.18937 9.44058 6.38695 9.35873C6.58454 9.27689 6.76407 9.15693 6.9153 9.0057C7.06653 8.85448 7.18649 8.67494 7.26833 8.47736C7.35017 8.27977 7.3923 8.068 7.3923 7.85413V2.96841C7.3923 2.53649 7.22072 2.12226 6.9153 1.81684C6.60989 1.51142 6.19565 1.33984 5.76373 1.33984ZM5.76373 13.5541H2.91373C2.4818 13.5541 2.06757 13.7257 1.76215 14.0311C1.45674 14.3365 1.28516 14.7508 1.28516 15.1827V18.0327C1.28516 18.4646 1.45674 18.8789 1.76215 19.1843C2.06757 19.4897 2.4818 19.6613 2.91373 19.6613H5.76373C6.19565 19.6613 6.60989 19.4897 6.9153 19.1843C7.22072 18.8789 7.3923 18.4646 7.3923 18.0327V15.1827C7.3923 14.7508 7.22072 14.3365 6.9153 14.0311C6.60989 13.7257 6.19565 13.5541 5.76373 13.5541ZM15.9423 1.33984H13.0923C12.6604 1.33984 12.2461 1.51142 11.9407 1.81684C11.6353 2.12226 11.4637 2.53649 11.4637 2.96841V5.81841C11.4637 6.25034 11.6353 6.66457 11.9407 6.96999C12.2461 7.27541 12.6604 7.44699 13.0923 7.44699H15.9423C16.3742 7.44699 16.7885 7.27541 17.0939 6.96999C17.3993 6.66457 17.5709 6.25034 17.5709 5.81841V2.96841C17.5709 2.53649 17.3993 2.12226 17.0939 1.81684C16.7885 1.51142 16.3742 1.33984 15.9423 1.33984ZM15.9423 11.5184H13.0923C12.6604 11.5184 12.2461 11.69 11.9407 11.9954C11.6353 12.3008 11.4637 12.7151 11.4637 13.147V18.0327C11.4637 18.4646 11.6353 18.8789 11.9407 19.1843C12.2461 19.4897 12.6604 19.6613 13.0923 19.6613H15.9423C16.3742 19.6613 16.7885 19.4897 17.0939 19.1843C17.3993 18.8789 17.5709 18.4646 17.5709 18.0327V13.147C17.5709 12.7151 17.3993 12.3008 17.0939 11.9954C16.7885 11.69 16.3742 11.5184 15.9423 11.5184Z" stroke="black" stroke-miterlimit="10" stroke-linejoin="round"/>
</svg>
