<svg width="24" height="24" viewBox="0 0 24 24" fill="none" xmlns="http://www.w3.org/2000/svg">
<path d="M18.0004 7.19844C18.0004 7.5167 17.874 7.82192 17.6489 8.04697C17.4239 8.27201 17.1187 8.39844 16.8004 8.39844C16.4821 8.39844 16.1769 8.27201 15.9519 8.04697C15.7268 7.82192 15.6004 7.5167 15.6004 7.19844C15.6004 6.88018 15.7268 6.57495 15.9519 6.34991C16.1769 6.12487 16.4821 5.99844 16.8004 5.99844C17.1187 5.99844 17.4239 6.12487 17.6489 6.34991C17.874 6.57495 18.0004 6.88018 18.0004 7.19844ZM15.0004 2.39844C11.3092 2.39844 8.40039 5.30724 8.40039 8.99844C8.40039 9.47484 8.44839 9.95364 8.54679 10.4084C8.61639 10.7324 8.53719 11.0132 8.37639 11.174L2.92839 16.622C2.76091 16.7893 2.62807 16.988 2.53747 17.2067C2.44686 17.4253 2.40028 17.6597 2.40039 17.8964V19.7984C2.40039 20.2758 2.59003 20.7337 2.9276 21.0712C3.26516 21.4088 3.723 21.5984 4.20039 21.5984H6.60039C7.07778 21.5984 7.53562 21.4088 7.87318 21.0712C8.21075 20.7337 8.40039 20.2758 8.40039 19.7984V19.1984H9.60039C9.91865 19.1984 10.2239 19.072 10.4489 18.847C10.674 18.6219 10.8004 18.3167 10.8004 17.9984V16.7984H12.0004C12.3187 16.7984 12.6239 16.672 12.8489 16.447C13.074 16.2219 13.2004 15.9167 13.2004 15.5984V15.3824C13.792 15.5432 14.4088 15.5984 15.0004 15.5984C18.6916 15.5984 21.6004 12.6896 21.6004 8.99844C21.6004 5.30724 18.6916 2.39844 15.0004 2.39844ZM9.60039 8.99844C9.60039 5.96964 11.9716 3.59844 15.0004 3.59844C18.0292 3.59844 20.4004 5.96964 20.4004 8.99844C20.4004 12.0272 18.0292 14.3984 15.0004 14.3984C14.2084 14.3984 13.4728 14.2844 12.8692 13.982C12.7777 13.9362 12.676 13.9145 12.5738 13.919C12.4716 13.9236 12.3722 13.9542 12.2852 14.0079C12.1981 14.0617 12.1263 14.1368 12.0764 14.2262C12.0266 14.3155 12.0004 14.4161 12.0004 14.5184V15.5984H10.8004C10.4821 15.5984 10.1769 15.7249 9.95186 15.9499C9.72682 16.175 9.60039 16.4802 9.60039 16.7984V17.9984H8.40039C8.08213 17.9984 7.77691 18.1249 7.55186 18.3499C7.32682 18.575 7.20039 18.8802 7.20039 19.1984V19.7984C7.20039 19.9576 7.13718 20.1102 7.02465 20.2227C6.91213 20.3352 6.75952 20.3984 6.60039 20.3984H4.20039C4.04126 20.3984 3.88865 20.3352 3.77613 20.2227C3.66361 20.1102 3.60039 19.9576 3.60039 19.7984V17.8952C3.60042 17.7364 3.66343 17.5841 3.77559 17.4716L9.22479 12.0224C9.74319 11.504 9.85119 10.7696 9.71919 10.1552C9.63897 9.7749 9.59915 9.38715 9.60039 8.99844Z" fill="black"/>
</svg>
