<svg width="24" height="24" viewBox="0 0 24 24" fill="none" xmlns="http://www.w3.org/2000/svg">
<path d="M12.028 17.23C12.2493 17.23 12.436 17.154 12.588 17.002C12.74 16.85 12.816 16.6633 12.816 16.442C12.816 16.2207 12.7393 16.034 12.586 15.882C12.434 15.73 12.2473 15.654 12.026 15.654C11.8047 15.654 11.618 15.7303 11.466 15.883C11.314 16.0357 11.2383 16.2223 11.239 16.443C11.239 16.6643 11.315 16.851 11.467 17.003C11.6203 17.155 11.8073 17.231 12.028 17.231M11.511 13.919H12.477C12.5023 13.4843 12.584 13.131 12.722 12.859C12.86 12.5877 13.1437 12.241 13.573 11.819C14.0197 11.373 14.3517 10.9733 14.569 10.62C14.7863 10.2667 14.8953 9.858 14.896 9.394C14.896 8.606 14.6193 7.978 14.066 7.51C13.512 7.042 12.8567 6.808 12.1 6.808C11.3807 6.808 10.77 7.00333 10.268 7.394C9.766 7.78533 9.39833 8.23467 9.165 8.742L10.085 9.123C10.245 8.759 10.474 8.43733 10.772 8.158C11.07 7.878 11.5 7.738 12.062 7.738C12.71 7.738 13.1833 7.916 13.482 8.272C13.7813 8.628 13.931 9.01933 13.931 9.446C13.931 9.79267 13.8373 10.102 13.65 10.374C13.4633 10.6467 13.22 10.9207 12.92 11.196C12.34 11.7307 11.96 12.184 11.78 12.556C11.6 12.928 11.5103 13.3823 11.511 13.919ZM12.003 21C10.759 21 9.589 20.764 8.493 20.292C7.39767 19.8193 6.44467 19.178 5.634 18.368C4.82333 17.558 4.18167 16.606 3.709 15.512C3.23633 14.418 3 13.2483 3 12.003C3 10.7577 3.23633 9.58767 3.709 8.493C4.181 7.39767 4.82133 6.44467 5.63 5.634C6.43867 4.82333 7.391 4.18167 8.487 3.709C9.583 3.23633 10.753 3 11.997 3C13.241 3 14.411 3.23633 15.507 3.709C16.6023 4.181 17.5553 4.82167 18.366 5.631C19.1767 6.44033 19.8183 7.39267 20.291 8.488C20.7637 9.58333 21 10.753 21 11.997C21 13.241 20.764 14.411 20.292 15.507C19.82 16.603 19.1787 17.556 18.368 18.366C17.5573 19.176 16.6053 19.8177 15.512 20.291C14.4187 20.7643 13.249 21.0007 12.003 21ZM12 20C14.2333 20 16.125 19.225 17.675 17.675C19.225 16.125 20 14.2333 20 12C20 9.76667 19.225 7.875 17.675 6.325C16.125 4.775 14.2333 4 12 4C9.76667 4 7.875 4.775 6.325 6.325C4.775 7.875 4 9.76667 4 12C4 14.2333 4.775 16.125 6.325 17.675C7.875 19.225 9.76667 20 12 20Z" fill="black"/>
</svg>
