<svg width="24" height="24" viewBox="0 0 24 24" fill="none" xmlns="http://www.w3.org/2000/svg">
<path d="M19.735 20C19.6751 20.4839 19.4401 20.9291 19.0744 21.2515C18.7087 21.5739 18.2376 21.7512 17.75 21.75H6.25C5.1425 21.75 4.25 20.8585 4.25 19.75V4.25C4.25 3.1425 5.1425 2.25 6.25 2.25H17.75C18.8585 2.25 19.75 3.1425 19.75 4.25V15.434" stroke="black" stroke-linecap="round" stroke-linejoin="round"/>
<path d="M18.567 18.83L10.644 10.8875V8.625M18.567 18.83L20.8525 16.539M18.567 18.83L19.8725 20.1385C19.9474 20.2135 20.0365 20.2731 20.1344 20.3137C20.2324 20.3543 20.3374 20.3752 20.4435 20.3752C20.5496 20.3752 20.6546 20.3543 20.7526 20.3137C20.8505 20.2731 20.9395 20.2135 21.0145 20.1385L22.1575 18.9925C22.3089 18.8404 22.3939 18.6346 22.3939 18.42C22.3939 18.2054 22.3089 17.9996 22.1575 17.8475L20.8525 16.539M10.644 8.625H12.96L20.8525 16.539M10.644 8.625H6.5M6.5 5.25H17.5M16.326 12H17.5M6.5 12H11.754M6.5 15.375H14.9945M6.5 18.75H17.5" stroke="black" stroke-linecap="round" stroke-linejoin="round"/>
</svg>
